<svg width="199" height="234" viewBox="0 0 199 234" fill="none" xmlns="http://www.w3.org/2000/svg">
<g clip-path="url(#clip0)">
<rect width="199" height="234" fill="white"/>
<rect x="5" y="4.88892" width="189.048" height="224.111" rx="5" fill="white" stroke="black" stroke-width="10"/>
<line y1="-5" x2="103.191" y2="-5" transform="matrix(-0.723648 -0.690169 0.705127 -0.709081 197.615 71.1082)" stroke="black" stroke-width="10"/>
<rect x="120.135" y="4.88892" width="72.9366" height="66.4444" rx="5" fill="white" stroke="black" stroke-width="10"/>
<line y1="-5" x2="96.9644" y2="-5" transform="matrix(0.714453 0.699684 -0.714453 0.699684 119.038 5.62219)" stroke="black" stroke-width="10"/>
<rect width="90.2463" height="108.394" transform="matrix(0.709203 -0.705005 0.719661 0.694326 120.99 -3.37598)" fill="white"/>
<g clip-path="url(#clip1)">
<path d="M45.4535 157.858V191.315C45.4535 197.466 50.5642 202.467 56.841 202.467H138.831C145.113 202.467 150.219 197.466 150.219 191.315V157.858H45.4535Z" fill="black"/>
<path d="M94.9482 105.644L77.9032 109.605L92.1832 130.183L110.645 126.07L94.9482 105.644Z" fill="black"/>
<path d="M73.1662 110.707L54.7957 114.971L68.9253 135.358L87.4142 131.24L73.1662 110.707Z" fill="black"/>
<path d="M150.146 114.909L146.27 100.509C145.377 97.0075 141.715 94.804 138.102 95.6113L122.797 99.1711L137.319 120.137L148.447 117.657C149.053 117.523 149.572 117.153 149.891 116.636C150.21 116.118 150.301 115.498 150.146 114.909Z" fill="black"/>
<path d="M118.056 100.273L99.7858 104.52L115.51 124.991L132.55 121.194L118.056 100.273Z" fill="black"/>
<path d="M68.406 135.558L61.118 153.397H78.9875L86.2754 135.558H68.406Z" fill="black"/>
<path d="M91.1813 135.558L83.8933 153.397H101.763L109.051 135.558H91.1813Z" fill="black"/>
<path d="M147.941 135.558H136.732L129.444 153.402H150.219V137.789C150.219 136.553 149.203 135.558 147.941 135.558Z" fill="black"/>
<path d="M113.956 135.558L106.668 153.397H124.533L131.826 135.558H113.956Z" fill="black"/>
<path d="M50.0586 116.078L46.3462 116.939C44.5379 117.34 43.0074 118.415 42.0372 119.959C41.067 121.507 40.78 123.327 41.231 125.089L45.4535 141.433V153.397H56.2124L63.0494 136.664L64.1607 136.419L50.0586 116.078Z" fill="black"/>
</g>
</g>
<defs>
<clipPath id="clip0">
<rect width="199" height="234" fill="white"/>
</clipPath>
<clipPath id="clip1">
<rect width="109.281" height="107.022" fill="white" transform="translate(40.9805 95.4445)"/>
</clipPath>
</defs>
</svg>
